<svg xmlns="http://www.w3.org/2000/svg" width="256" height="256" fill="none" viewBox="0 0 256 256">
  <g clip-path="url(#a)">
    <path fill="#fff" d="M38.212 160.119a34.03 34.03 0 0 0 18.342 5.3h33.951v62.073a28.716 28.716 0 0 0 5.184 16.372 28.57 28.57 0 0 0 45.158 2.083l84.609-99.243a33.846 33.846 0 0 0 7.852-17.511 33.877 33.877 0 0 0-2.91-18.93 33.921 33.921 0 0 0-31.003-19.678h-33.922v-62.14a28.606 28.606 0 0 0-18.804-26.759c-5.446-1.873-11.611-2.169-17.171-.663a28.793 28.793 0 0 0-14.297 9.01l-84.695 99.325a34.03 34.03 0 0 0-4.913 36.385 34.03 34.03 0 0 0 12.619 14.376Z"/>
    <path fill="#0F1A1C" fill-rule="evenodd" d="m203.136 122.975-.034-.073a3.842 3.842 0 0 0-3.525-2.238l-.114.001-60.27-.445-3.645-87.69-82.112 96.295-.006.008a3.953 3.953 0 0 0 3.037 6.505l.513-.002 59.844 4.122 3.604 84.075 82.194-96.411a3.764 3.764 0 0 0 .876-1.951 3.802 3.802 0 0 0-.328-2.124l-.034-.072ZM141.184 16.717a12.61 12.61 0 0 1 8.289 11.795l3.231 77.727 46.749.346a17.92 17.92 0 0 1 16.444 10.439 17.883 17.883 0 0 1 1.555 10.029 17.843 17.843 0 0 1-4.154 9.248l-84.637 99.277a12.561 12.561 0 0 1-13.897 3.681 12.561 12.561 0 0 1-8.259-11.768l-3.209-74.852-46.77-3.221a18.035 18.035 0 0 1-13.823-29.706l84.625-99.243a12.795 12.795 0 0 1 13.856-3.752Z" clip-rule="evenodd"/>
  </g>
  <defs>
    <clipPath id="a">
      <path fill="#fff" d="M0 0h256v256H0z"/>
    </clipPath>
  </defs>
</svg>