<svg xmlns="http://www.w3.org/2000/svg" width="256" height="256" viewBox="0 0 256 256" fill="none">
  <path d="M252.856 128C252.856 196.925 196.981 252.8 128.056 252.8C59.131 252.8 3.25613 196.925 3.25613 128C3.25613 59.0751 59.131 3.2002 128.056 3.2002C147.127 3.2002 165.198 7.47772 181.364 15.1257C181.364 8.53941 186.703 3.2002 193.289 3.2002H210.964C219.801 3.2002 226.964 10.3636 226.964 19.2002V29.0405H236.804C245.641 29.0405 252.804 36.2039 252.804 45.0405V62.7425C252.804 69.3137 247.477 74.6406 240.906 74.6406C248.569 90.8193 252.856 108.909 252.856 128Z" fill="white"/>
  <path d="M219.502 101.991C225.357 122.325 224.305 144.027 216.511 163.699C208.717 183.371 194.621 199.905 176.429 210.712C158.237 221.519 136.975 225.99 115.971 223.424C94.967 220.859 75.406 211.403 60.3493 196.536C45.2925 181.668 35.5896 162.229 32.759 141.259C29.9284 120.289 34.1298 98.9723 44.7058 80.6448C55.2818 62.3174 71.6355 48.0133 91.2077 39.9711C110.78 31.9289 132.466 30.6024 152.872 36.1992V22.1747C130.89 17.0222 107.85 18.8393 86.9469 27.3741C66.0443 35.9089 48.3164 50.7381 36.2231 69.8041C24.1298 88.8701 18.2706 111.228 19.4587 133.774C20.6467 156.321 28.8231 177.939 42.8532 195.628C56.8833 213.318 76.0714 226.202 97.7552 232.492C119.439 238.783 142.543 238.169 163.862 230.734C185.181 223.3 203.657 209.415 216.727 191.005C229.798 172.595 236.814 150.573 236.802 127.995C236.774 119.227 235.678 110.494 233.538 101.991H219.502Z" fill="#0F1A1C"/>
  <path d="M128.001 169.656C122.79 169.785 117.621 168.682 112.917 166.436C108.213 164.19 104.106 160.864 100.931 156.73L89.7897 164.542C94.1986 170.49 99.9694 175.293 106.618 178.549C113.267 181.805 120.599 183.419 128.001 183.256C135.402 183.419 142.735 181.805 149.383 178.549C156.032 175.293 161.803 170.49 166.212 164.542L155.07 156.73C151.896 160.865 147.789 164.191 143.085 166.437C138.38 168.683 133.212 169.786 128.001 169.656Z" fill="#0F1A1C"/>
  <path d="M84.4825 133.44C88.8109 133.44 92.962 131.721 96.0226 128.66C99.0832 125.599 100.803 121.448 100.803 117.12C100.803 112.791 99.0832 108.64 96.0226 105.58C92.962 102.519 88.8109 100.8 84.4825 100.8C80.1541 100.8 76.003 102.519 72.9424 105.58C69.8817 108.64 68.1623 112.791 68.1623 117.12C68.1623 121.448 69.8817 125.599 72.9424 128.66C76.003 131.721 80.1541 133.44 84.4825 133.44Z" fill="#0F1A1C"/>
  <path d="M210.964 45.039V19.1987H197.364V45.039H171.523V58.6392H197.364V84.4795H210.964V58.6392H236.804V45.039H210.964Z" fill="#0F1A1C"/>
  <path d="M171.523 133.44C175.852 133.44 180.003 131.721 183.064 128.66C186.124 125.599 187.844 121.448 187.844 117.12C187.844 112.791 186.124 108.64 183.064 105.58C180.003 102.519 175.852 100.8 171.523 100.8C167.195 100.8 163.044 102.519 159.983 105.58C156.923 108.64 155.203 112.791 155.203 117.12C155.203 121.448 156.923 125.599 159.983 128.66C163.044 131.721 167.195 133.44 171.523 133.44Z" fill="#0F1A1C"/>
</svg>