<svg xmlns="http://www.w3.org/2000/svg" width="256" height="256" viewBox="0 0 256 256" fill="none">
  <path d="M242.702 47.106C234.196 38.5966 222.661 33.8097 210.629 33.796H192.11L183.191 22.2112C180.495 18.7449 177.046 15.9374 173.105 14.0015C169.164 12.0656 164.834 11.0521 160.443 11.0376L96.0705 11.0376C91.636 11.0465 87.2621 12.0686 83.2829 14.0258C79.3037 15.9831 75.8244 18.8238 73.1106 22.331L64.286 33.7848L45.3757 33.7848C33.3469 33.8031 21.8161 38.5896 13.3105 47.0952C4.80484 55.6009 0.018335 67.1317 2.89917e-05 79.1605L0 188.038C0.0228409 200.063 4.81023 211.62 13.3137 220.124C21.8172 228.627 33.3439 233.415 45.3696 233.438L210.6 233.438L210.63 233.438C222.656 233.415 234.183 228.627 242.686 220.124C251.19 211.62 255.977 200.094 256 188.068V79.1838C255.991 67.152 251.208 55.6154 242.702 47.106Z" fill="white"/>
  <path d="M210.611 49.797H184.235L170.56 32.0338C169.355 30.4841 167.813 29.229 166.051 28.3636C164.289 27.4981 162.353 27.045 160.39 27.0386H96.1024C94.1058 27.0426 92.1365 27.5028 90.3448 28.384C88.5532 29.2653 86.9867 30.5443 85.7648 32.1234L72.1568 49.7858H45.4C37.6063 49.7976 30.1352 52.8989 24.6241 58.4099C19.1131 63.9209 16.0118 71.3921 16 79.1858V188.039C16.0148 195.831 19.117 203.301 24.6274 208.811C30.1378 214.322 37.6072 217.424 45.4 217.439H210.6C218.393 217.424 225.862 214.322 231.373 208.811C236.883 203.301 239.985 195.831 240 188.039V79.197C239.994 71.4034 236.896 63.9305 231.386 58.4185C225.876 52.9066 218.405 49.8059 210.611 49.797ZM226 188.039C225.994 192.121 224.37 196.035 221.483 198.921C218.596 201.808 214.683 203.433 210.6 203.439H45.4C41.3175 203.433 37.4039 201.808 34.5171 198.921C31.6303 196.035 30.0059 192.121 30 188.039V79.1858C30.0059 75.1033 31.6303 71.1897 34.5171 68.3029C37.4039 65.4161 41.3175 63.7917 45.4 63.7858H79L96.1024 41.0386L159.461 40.5794L177.381 63.7858H210.656C214.733 63.8006 218.637 65.4312 221.513 68.32C224.389 71.2089 226.003 75.1204 226 79.197V188.039ZM135 120.839H172.8V134.839H135V172.639H121V134.839H83.2V120.839H121V83.0386H135V120.839Z" fill="#0F1A1C"/>
</svg>