<svg xmlns="http://www.w3.org/2000/svg" width="256" height="256" viewBox="0 0 256 256" fill="none">
  <path fill-rule="evenodd" clip-rule="evenodd" d="M231.68 100.479C240.516 100.479 247.68 107.642 247.68 116.479V139.519C247.68 148.355 240.516 155.519 231.68 155.519H155.52V231.679C155.52 240.515 148.356 247.679 139.52 247.679H116.48C107.643 247.679 100.48 240.515 100.48 231.679V155.519H24.3198C15.4833 155.519 8.31982 148.355 8.31982 139.519V116.479C8.31982 107.642 15.4833 100.479 24.3198 100.479H100.48V24.3188C100.48 15.4823 107.643 8.31885 116.48 8.31885H139.52C148.356 8.31885 155.52 15.4823 155.52 24.3189V100.479H231.68Z" fill="white"/>
  <path d="M231.68 116.48H139.52V24.3198H116.48V116.48H24.3198V139.52H116.48V231.68H139.52V139.52H231.68V116.48Z" fill="#0F1A1C"/>
</svg>