<svg xmlns="http://www.w3.org/2000/svg" width="256" height="256" viewBox="0 0 256 256" fill="none">
  <path d="M201.56 74.4532C197.156 74.4532 192.775 75.0545 188.542 76.2394C177.632 70.8934 166.06 67.0677 154.15 64.8545L155.857 56.9727L159.369 57.7186C161.453 60.7104 164.044 63.3484 167.051 65.5018C173.024 69.7793 180.279 71.888 187.615 71.4785C194.95 71.069 201.926 68.1659 207.385 63.25C212.845 58.3342 216.462 51.7007 217.637 44.4484C218.811 37.196 217.473 29.76 213.843 23.3723C210.214 16.9845 204.511 12.0283 197.68 9.32456C190.849 6.62085 183.299 6.33194 176.281 8.50569C173.108 9.48864 170.129 10.9485 167.438 12.8162L148.357 8.7563C141.073 7.24381 133.486 8.66071 127.24 12.7003C120.993 16.7399 116.588 23.0771 114.979 30.3402L107.7 63.9591C93.74 65.8803 80.162 70.0066 67.4776 76.1929C63.2572 75.0572 58.7329 74.4659 54.3392 74.4426C42.4566 74.5013 30.9623 78.6802 21.8165 86.2667C12.6792 93.846 6.45134 104.358 4.19255 116.012C2.9654 122.246 2.87458 128.659 3.91765 134.917C5.39435 143.6 9.09085 151.774 14.5925 158.571C16.6355 182.613 30.3602 203.049 49.7648 217.287C70.3849 232.416 98.0037 241.138 127.989 241.138C157.967 241.138 185.561 232.426 206.156 217.321C225.532 203.112 239.237 182.718 241.277 158.736C246.818 151.929 250.56 143.698 252.07 134.985C253.112 128.762 253.037 122.385 251.839 116.182C249.607 104.49 243.383 93.935 234.23 86.3234C225.071 78.7068 213.472 74.5105 201.56 74.4532Z" fill="white"/>
  <path d="M236.126 119.197C234.592 111.141 230.305 103.868 224 98.6245C217.694 93.3806 209.761 90.4917 201.56 90.4523C196.664 90.4523 191.823 91.562 187.416 93.7163C171.294 84.6459 153.26 79.5056 134.778 78.7127L143.591 38.0103L170.182 43.6571C171.177 47.221 173.359 50.3382 176.367 52.4924C179.375 54.6467 183.029 55.7086 186.723 55.5024C190.417 55.2962 193.93 53.8341 196.68 51.3584C199.429 48.8827 201.251 45.542 201.842 41.8896C202.434 38.2372 201.76 34.4924 199.932 31.2754C198.104 28.0584 195.232 25.5624 191.792 24.2007C188.352 22.8391 184.549 22.6936 181.015 23.7883C177.481 24.8831 174.427 27.1523 172.358 30.2202L145.104 24.4211C141.939 23.7639 138.642 24.3796 135.928 26.1349C133.214 27.8902 131.3 30.6438 130.601 33.7998L120.852 78.8215C102.562 79.6034 84.7092 84.66 68.7256 93.5857C64.232 91.5392 59.3559 90.4676 54.4183 90.4414C46.239 90.4818 38.327 93.3584 32.0315 98.5804C25.7361 103.803 21.447 111.047 19.8959 119.078C19.0363 123.43 18.9711 127.912 19.7 132.286C20.9317 139.528 24.4019 146.202 29.6226 151.37L30.3407 152.142V153.524C31.1676 193.671 74.0024 225.137 127.989 225.137C181.965 225.137 224.713 193.704 225.529 153.687L225.594 152.186L226.073 151.685C231.437 146.478 235.013 139.706 236.29 132.341C237.018 127.988 236.964 123.528 236.126 119.197ZM222.842 130.077C222.026 134.647 219.774 138.836 216.423 142.046L212.158 146.474L211.896 153.274C211.233 185.914 174.36 211.526 127.946 211.526C81.5206 211.526 44.6045 185.925 43.9843 153.089L43.7232 146.561L39.3712 141.85C36.1072 138.662 33.9312 134.517 33.1587 130.023C32.7014 127.263 32.7456 124.444 33.2892 121.7C34.2349 116.771 36.8548 112.321 40.7054 109.103C44.5559 105.885 49.4004 104.097 54.4183 104.041C58.259 104.074 62.0126 105.151 65.2984 107.153L68.965 109.503L72.5989 107.11C88.2081 97.5792 106.08 92.3919 124.366 92.0843H132.189C150.376 92.5116 168.123 97.7687 183.608 107.316L187.384 109.764L191.115 107.24C194.188 105.124 197.829 103.986 201.56 103.976C206.601 104.017 211.47 105.807 215.338 109.039C219.205 112.272 221.831 116.747 222.766 121.7C223.299 124.452 223.32 127.27 222.842 130.034V130.077Z" fill="#0F1A1C"/>
</svg>