<svg xmlns="http://www.w3.org/2000/svg" width="256" height="256" viewBox="0 0 256 256" fill="none">
  <path d="M48.3949 202.248L46.0389 199.929C29.5225 183.678 18.2186 162.876 13.5676 140.177C8.91671 117.477 11.1294 93.906 19.9237 72.4683C28.7225 51.0349 43.6968 32.6978 62.9406 19.7946C82.1824 6.89283 104.825 0.00279875 127.992 4.45427e-05C151.164 -0.0201947 173.818 6.8572 193.069 19.7564C212.321 32.6568 227.297 50.9962 236.089 72.4382C244.881 93.8803 247.092 117.454 242.439 140.157C237.786 162.86 226.48 183.664 209.962 199.918L207.618 202.224C210.17 209.693 211.408 217.622 211.2 225.661V229.173C211.238 236.197 208.505 242.953 203.592 247.976C198.659 253.018 191.931 255.903 184.878 255.999L71.1548 255.999C64.1029 255.918 57.3705 253.046 52.4313 248.012C47.509 242.996 44.7671 236.24 44.8001 229.214V225.664C44.5999 217.632 45.8424 209.71 48.3949 202.248Z" fill="white"/>
  <path d="M175.589 166.461C170.92 163.861 165.931 161.885 160.749 160.581C170.014 153.703 176.874 144.078 180.352 133.075C183.831 122.073 183.75 110.253 180.123 99.2993C176.495 88.3452 169.504 78.8144 160.146 72.0631C150.788 65.3118 139.539 61.684 128 61.696C116.463 61.6987 105.22 65.3359 95.8668 72.0912C86.514 78.8465 79.5269 88.3764 75.8977 99.328C72.271 110.276 72.1891 122.089 75.6638 133.086C79.1385 144.083 85.9927 153.704 95.2513 160.581C90.0691 161.885 85.08 163.861 80.4113 166.461C70.4818 156.962 63.6241 144.708 60.7215 131.277C57.819 117.846 59.0047 103.853 64.1259 91.1023C69.2471 78.3512 78.0691 67.4256 89.4553 59.7333C100.841 52.041 114.27 47.9343 128.011 47.9424C141.754 47.9426 155.182 52.0542 166.569 59.7486C177.956 67.4429 186.78 78.3679 191.907 91.1184C197.031 103.869 198.217 117.863 195.312 131.294C192.407 144.725 185.545 156.978 175.611 166.472H175.589V166.461ZM66.0305 177.504C54.0528 165.307 45.9464 149.843 42.7296 133.054C39.5128 116.264 41.3291 98.899 47.9503 83.1388C54.5715 67.3785 65.7024 53.9263 79.9447 44.472C94.187 35.0177 110.905 29.9829 128 30C145.092 30.0012 161.804 35.0468 176.042 44.5044C190.279 53.962 201.408 67.4111 208.035 83.1664C214.655 98.9213 216.472 116.281 213.258 133.065C210.044 149.849 201.942 165.31 189.97 177.504C193.274 180.864 196.208 184.549 198.739 188.514C212.993 174.487 222.749 156.535 226.765 136.945C230.78 117.354 228.872 97.0113 221.285 78.5085C213.698 60.0057 200.775 44.1803 184.162 33.0482C167.549 21.9161 147.998 15.9814 128 16C108.004 16.0012 88.4594 21.9478 71.8511 33.0838C55.2427 44.2199 42.3203 60.0426 34.7265 78.5408C27.1381 97.0391 25.2288 117.378 29.242 136.965C33.2552 156.552 43.0092 174.501 57.2609 188.525C59.7921 184.549 62.7265 180.853 66.0305 177.504ZM145.707 172.834H110.293C96.7616 173.275 83.9565 179.06 74.6806 188.922C65.4047 198.783 60.4137 211.918 60.8001 225.451V229.259C60.7792 232.079 61.8764 234.793 63.8517 236.806C65.8269 238.819 68.5192 239.967 71.3393 240H184.661C187.485 239.962 190.179 238.807 192.154 236.788C194.129 234.769 195.224 232.05 195.2 229.226V225.44C195.601 211.903 190.615 198.76 181.336 188.895C172.057 179.03 159.244 173.25 145.707 172.822V172.834ZM181.2 226.056H74.8001V225.44C74.4053 215.615 77.9179 206.034 84.5695 198.793C91.2211 191.551 100.47 187.239 110.293 186.8H145.707C155.527 187.248 164.771 191.563 171.421 198.802C178.07 206.041 181.586 215.618 181.2 225.44V226.056ZM128 78.608C122.345 78.6115 116.761 79.8677 111.65 82.2863C106.538 84.7049 102.026 88.2259 98.4378 92.5962C94.8492 96.9665 92.2735 102.077 90.8956 107.562C89.5177 113.046 89.372 118.768 90.4689 124.315C91.5691 129.867 93.8881 135.106 97.2585 139.653C100.629 144.199 104.967 147.941 109.959 150.608C114.951 153.275 120.473 154.801 126.126 155.075C131.78 155.349 137.423 154.364 142.65 152.192C149.639 149.297 155.614 144.395 159.818 138.106C164.023 131.816 166.268 124.421 166.27 116.856C166.262 106.711 162.226 96.9841 155.05 89.8125C147.874 82.6409 138.145 78.611 128 78.608ZM128 141.104C124.414 141.101 120.874 140.304 117.633 138.769C114.392 137.235 111.531 135.002 109.256 132.231C106.98 129.46 105.347 126.219 104.473 122.742C103.599 119.264 103.505 115.636 104.2 112.118C104.9 108.6 106.372 105.28 108.51 102.399C110.648 99.5179 113.398 97.1467 116.562 95.4563C119.727 93.7659 123.227 92.7984 126.81 92.6235C130.393 92.4486 133.971 93.0706 137.285 94.4448C141.717 96.2798 145.505 99.3869 148.173 103.374C150.84 107.36 152.266 112.048 152.27 116.845C152.273 120.034 151.648 123.192 150.429 126.14C149.211 129.087 147.424 131.765 145.17 134.021C142.916 136.277 140.239 138.067 137.293 139.288C134.347 140.509 131.189 141.138 128 141.138V141.104Z" fill="#0F1A1C"/>
</svg>