<svg xmlns="http://www.w3.org/2000/svg" width="256" height="256" viewBox="0 0 256 256" fill="none">
  <g clip-path="url(#clip0_100_504)">
    <path d="M256 128C256 198.692 198.692 256 128 256C57.3076 256 0 198.692 0 128C0 57.3076 57.3076 0 128 0C198.692 0 256 57.3076 256 128Z" fill="white"/>
    <path fill-rule="evenodd" clip-rule="evenodd" d="M65.7762 34.8754C84.1945 22.5687 105.849 16 128 16C157.695 16.0297 186.166 27.8391 207.163 48.8368C228.161 69.8344 239.97 98.3048 240 128C240 150.151 233.431 171.806 221.125 190.224C208.818 208.642 191.326 222.997 170.861 231.474C150.395 239.951 127.876 242.169 106.15 237.848C84.424 233.526 64.4676 222.859 48.8041 207.196C33.1406 191.532 22.4736 171.576 18.1521 149.85C13.8306 128.124 16.0485 105.605 24.5255 85.1394C33.0026 64.6741 47.3579 47.1821 65.7762 34.8754ZM184 83.2V208.315C201.475 196.144 214.511 178.613 221.137 158.374C227.763 138.135 227.619 116.288 220.725 96.1388C213.832 75.9892 200.565 58.6324 182.93 46.6932C165.296 34.754 144.253 28.8818 122.984 29.9648C101.716 31.0478 81.3783 39.027 65.0477 52.6956C48.7171 66.3643 37.2815 84.979 32.4704 105.724C27.6594 126.47 29.7346 148.218 38.3821 167.679C47.0296 187.141 61.7791 203.257 80.4 213.59V172.8H94.4V219.991C104.269 223.593 114.67 225.578 125.2 225.854V128H139.2V225.306C149.889 224.07 160.298 221.065 170 216.413V83.2H184Z" fill="#0F1A1C"/>
  </g>
  <defs>
    <clipPath id="clip0_100_504">
      <rect width="256" height="256" fill="white"/>
    </clipPath>
  </defs>
</svg>