<svg xmlns="http://www.w3.org/2000/svg" width="256" height="256" fill="none" viewBox="0 0 256 256">
  <g clip-path="url(#a)">
    <path fill="#fff" d="M255.67 95.511a29.384 29.384 0 0 0-3.045-18.063c-16.764-31.415-42.641-57.294-74.05-74.069a29.427 29.427 0 0 0-34.42 5.2L53.63 99.082a39.968 39.968 0 0 0-5.857 48.908L17.75 172.028A47.109 47.109 0 0 0 .075 206.21a47.118 47.118 0 0 0 30.247 46.682 47.098 47.098 0 0 0 19.454 3.019 47.121 47.121 0 0 0 34.185-17.677l24.09-30.097a40.44 40.44 0 0 0 48.627-5.559l90.747-90.697a29.419 29.419 0 0 0 8.245-16.37Z"/>
    <path fill="#0F1A1C" d="M234.682 85.523a159.238 159.238 0 0 0-65.473-65.496 12.692 12.692 0 0 0-14.846 2.243L88.977 87.678l-22.83 22.787a22.973 22.973 0 0 0 0 32.414l6.016 6.017-42.358 33.913a29.938 29.938 0 0 0-9.326 34.097 29.943 29.943 0 0 0 41.734 15.921 29.935 29.935 0 0 0 9.666-7.945l33.913-42.369 6.016 6.028a23.434 23.434 0 0 0 32.414 0l22.831-22.831 65.386-65.342a12.695 12.695 0 0 0 3.557-7.06 12.657 12.657 0 0 0-1.314-7.785ZM134.53 178.914a9.43 9.43 0 0 1-13.062 0L104.643 162.1l-43.408 54.282a16.261 16.261 0 0 1-11.783 6.004 16.25 16.25 0 0 1-16.028-10.408 16.258 16.258 0 0 1 4.947-18.459l54.304-43.452-16.869-16.826a9.265 9.265 0 0 1 0-13.062l18.007-17.995 58.734 58.724-18.017 18.006Zm27.666-27.677-58.713-58.713 60.026-60.036a145.617 145.617 0 0 1 58.724 58.745l-60.037 60.026v-.022Z"/>
  </g>
  <defs>
    <clipPath id="a">
      <path fill="#fff" d="M0 0h256v256H0z"/>
    </clipPath>
  </defs>
</svg>