<svg xmlns="http://www.w3.org/2000/svg" width="256" height="256" viewBox="0 0 256 256" fill="none">
  <path d="M251.816 95.6955C252.729 89.6467 251.684 83.4839 248.847 78.0819C232.5 47.4488 207.268 22.2144 176.64 5.85781C171.234 3.02243 165.065 1.98526 159.029 2.89711C152.993 3.80895 147.405 6.62225 143.078 10.928L54.8067 99.1773C47.5366 106.481 43.4551 116.367 43.4551 126.672C43.4551 133.851 45.436 140.827 49.0959 146.868L19.8195 170.307C14.7665 174.334 10.6198 179.382 7.65034 185.121C4.67692 190.868 2.95095 197.178 2.58545 203.638C2.21994 210.098 3.22315 216.563 5.52937 222.608C7.8356 228.654 11.3928 234.144 15.9681 238.719C20.5434 243.294 26.0335 246.852 32.079 249.158C38.1245 251.464 44.589 252.467 51.049 252.102C57.5091 251.736 63.8191 250.01 69.5658 247.037C75.3062 244.067 80.3552 239.919 84.383 234.864L107.873 205.517C113.921 209.111 120.871 211.05 128.015 211.05C138.178 211.05 147.949 207.126 155.289 200.097L243.776 111.658C248.088 107.329 250.904 101.737 251.816 95.6955Z" fill="white"/>
  <path d="M234.682 85.5226C219.828 57.6864 197.04 34.8903 169.208 20.0271C166.817 18.773 164.089 18.3143 161.419 18.7176C158.749 19.1209 156.277 20.3653 154.363 22.2698L88.9774 87.6777L66.1464 110.465C61.861 114.77 59.4551 120.597 59.4551 126.672C59.4551 132.746 61.861 138.574 66.1464 142.879L72.1632 148.896L29.8051 182.809C26.5059 185.435 23.7987 188.729 21.8609 192.474C19.923 196.219 18.7981 200.332 18.5599 204.542C18.3217 208.752 18.9755 212.965 20.4786 216.906C21.9816 220.846 24.3 224.424 27.2818 227.406C30.2637 230.387 33.8418 232.706 37.7818 234.209C41.7218 235.712 45.9349 236.366 50.1452 236.127C54.3554 235.889 58.4679 234.764 62.2132 232.826C65.9586 230.889 69.2523 228.181 71.8788 224.882L105.792 182.513L111.808 188.541C116.17 192.718 121.976 195.05 128.015 195.05C134.055 195.05 139.861 192.718 144.222 188.541L167.053 165.71L232.439 100.368C234.346 98.4528 235.592 95.9793 235.996 93.3072C236.399 90.6351 235.939 87.9149 234.682 85.5226ZM134.53 178.914C132.774 180.6 130.434 181.542 127.999 181.542C125.564 181.542 123.224 180.6 121.468 178.914L104.643 162.1L61.2346 216.382C59.8009 218.153 58.0111 219.602 55.9813 220.637C53.9514 221.671 51.7268 222.267 49.4518 222.386C47.1767 222.506 44.902 222.145 42.7751 221.329C40.6482 220.512 38.7167 219.258 37.1057 217.647C35.4948 216.036 34.2405 214.105 33.4241 211.978C32.6077 209.851 32.2474 207.576 32.3667 205.301C32.486 203.026 33.0821 200.802 34.1164 198.772C35.1508 196.742 36.6002 194.952 38.3708 193.518L92.675 150.066L75.8061 133.241C74.0812 131.505 73.1131 129.157 73.1131 126.71C73.1131 124.263 74.0812 121.915 75.8061 120.179L93.8127 102.184L152.547 160.907L134.53 178.914ZM162.196 151.237L103.483 92.5239L163.509 32.4874C188.372 45.9526 208.777 66.3651 222.233 91.2331L162.196 151.259V151.237Z" fill="#0F1A1C"/>
</svg>