<svg xmlns="http://www.w3.org/2000/svg" width="256" height="256" viewBox="0 0 256 256" fill="none">
  <g clip-path="url(#clip0_55_253)">
    <path d="M255.67 95.5113C256.607 89.3081 255.535 82.9879 252.625 77.448C235.861 46.0326 209.984 20.1539 178.574 3.37962C173.03 0.471836 166.703 -0.591811 160.513 0.343314C154.323 1.27844 148.593 4.16359 144.155 8.57925L53.63 99.082C46.1742 106.572 41.9885 116.71 41.9885 127.279C41.9885 134.641 44.02 141.795 47.7734 147.99L17.7493 172.028C12.5673 176.158 8.31474 181.335 5.26946 187.221C2.22012 193.114 0.450072 199.586 0.0752343 206.211C-0.299603 212.836 0.729223 219.465 3.09434 225.665C5.45945 231.865 9.10751 237.495 13.7996 242.187C18.4917 246.879 24.122 250.527 30.3219 252.893C36.5218 255.258 43.1513 256.286 49.7763 255.912C56.4013 255.537 62.8725 253.767 68.766 250.717C74.653 247.671 79.8309 243.418 83.9616 238.234L108.051 208.137C114.254 211.823 121.382 213.811 128.708 213.811C139.13 213.811 149.15 209.787 156.678 202.578L247.425 111.881C251.846 107.442 254.735 101.707 255.67 95.5113Z" fill="white"/>
    <path d="M234.682 85.5226C219.828 57.6864 197.04 34.8903 169.208 20.0271C166.817 18.773 164.089 18.3143 161.419 18.7176C158.749 19.1209 156.277 20.3653 154.363 22.2698L88.9774 87.6777L66.1464 110.465C61.861 114.77 59.4551 120.597 59.4551 126.672C59.4551 132.746 61.861 138.574 66.1464 142.879L72.1632 148.896L29.8051 182.809C26.5059 185.435 23.7987 188.729 21.8609 192.474C19.923 196.219 18.7981 200.332 18.5599 204.542C18.3217 208.752 18.9755 212.965 20.4786 216.906C21.9816 220.846 24.3 224.424 27.2818 227.406C30.2637 230.387 33.8418 232.706 37.7818 234.209C41.7218 235.712 45.9349 236.366 50.1452 236.127C54.3554 235.889 58.4679 234.764 62.2132 232.826C65.9586 230.889 69.2523 228.181 71.8788 224.882L105.792 182.513L111.808 188.541C116.17 192.718 121.976 195.05 128.015 195.05C134.055 195.05 139.861 192.718 144.222 188.541L167.053 165.71L232.439 100.368C234.346 98.4528 235.592 95.9793 235.996 93.3072C236.399 90.6351 235.939 87.9149 234.682 85.5226ZM134.53 178.914C132.774 180.6 130.434 181.542 127.999 181.542C125.564 181.542 123.224 180.6 121.468 178.914L104.643 162.1L61.2346 216.382C59.8009 218.153 58.0111 219.602 55.9813 220.636C53.9514 221.671 51.7268 222.267 49.4518 222.386C47.1767 222.506 44.902 222.145 42.7751 221.329C40.6482 220.512 38.7167 219.258 37.1057 217.647C35.4948 216.036 34.2405 214.105 33.4241 211.978C32.6077 209.851 32.2474 207.576 32.3667 205.301C32.486 203.026 33.0821 200.802 34.1164 198.772C35.1508 196.742 36.6002 194.952 38.3708 193.518L92.675 150.066L75.8061 133.241C74.0812 131.505 73.1131 129.157 73.1131 126.71C73.1131 124.263 74.0812 121.915 75.8061 120.179L93.8127 102.184L152.547 160.907L134.53 178.914ZM162.196 151.237L103.483 92.5239L163.509 32.4874C188.372 45.9526 208.777 66.3651 222.233 91.2331L162.196 151.259V151.237Z" fill="#0F1A1C"/>
  </g>
  <defs>
    <clipPath id="clip0_55_253">
      <rect width="256" height="256" fill="white"/>
    </clipPath>
  </defs>
</svg>