<svg xmlns="http://www.w3.org/2000/svg" width="256" height="256" viewBox="0 0 256 256" fill="none">
  <g clip-path="url(#clip0_55_253)">
    <path d="M255.67 95.5113C256.607 89.3081 255.535 82.9879 252.625 77.448C235.861 46.0326 209.984 20.1539 178.574 3.37962C173.03 0.471836 166.703 -0.591811 160.513 0.343314C154.323 1.27844 148.593 4.16359 144.155 8.57925L53.63 99.082C46.1742 106.572 41.9885 116.71 41.9885 127.279C41.9885 134.641 44.02 141.795 47.7734 147.99L17.7493 172.028C12.5673 176.158 8.31474 181.335 5.26946 187.221C2.22012 193.114 0.450072 199.586 0.0752343 206.211C-0.299603 212.836 0.729223 219.465 3.09434 225.665C5.45945 231.865 9.10751 237.495 13.7996 242.187C18.4917 246.879 24.122 250.527 30.3219 252.893C36.5218 255.258 43.1513 256.286 49.7763 255.912C56.4013 255.537 62.8725 253.767 68.766 250.717C74.653 247.671 79.8309 243.418 83.9616 238.234L108.051 208.137C114.254 211.823 121.382 213.811 128.708 213.811C139.13 213.811 149.15 209.787 156.678 202.578L247.425 111.881C251.846 107.442 254.735 101.707 255.67 95.5113Z" fill="white"/>
    <path d="M235.853 85.066C220.837 56.9261 197.8 33.8813 169.665 18.856C167.248 17.5882 164.49 17.1244 161.791 17.5321C159.092 17.9398 156.593 19.1978 154.658 21.1231L88.5591 87.2446L65.479 110.28C61.1468 114.633 58.7147 120.523 58.7147 126.664C58.7147 132.805 61.1468 138.696 65.479 143.048L71.5614 149.131L28.7411 183.413C25.406 186.068 22.6693 189.398 20.7103 193.184C18.7512 196.971 17.6141 201.128 17.3733 205.384C17.1325 209.64 17.7934 213.899 19.3129 217.882C20.8323 221.865 23.176 225.482 26.1904 228.497C29.2047 231.511 32.8219 233.855 36.8049 235.374C40.7879 236.894 45.047 237.555 49.3031 237.314C53.5593 237.073 57.7166 235.936 61.5029 233.977C65.2891 232.018 68.6188 229.281 71.2739 225.946L105.557 183.115L111.639 189.208C116.048 193.431 121.918 195.788 128.023 195.788C134.128 195.788 139.997 193.431 144.407 189.208L167.487 166.128L233.586 100.073C235.514 98.1373 236.773 95.6368 237.181 92.9355C237.589 90.2343 237.124 87.4844 235.853 85.066ZM134.609 179.476C132.833 181.181 130.467 182.133 128.006 182.133C125.545 182.133 123.179 181.181 121.404 179.476L104.395 162.479L60.5135 217.353C59.0643 219.143 57.2549 220.608 55.2029 221.654C53.1509 222.7 50.9021 223.302 48.6022 223.423C46.3023 223.543 44.0028 223.179 41.8527 222.354C39.7026 221.529 37.75 220.261 36.1215 218.632C34.493 217.004 33.2249 215.051 32.3996 212.901C31.5743 210.751 31.2101 208.451 31.3307 206.151C31.4513 203.851 32.0539 201.603 33.0996 199.551C34.1452 197.499 35.6104 195.689 37.4003 194.24L92.297 150.314L75.2441 133.305C73.5004 131.55 72.5217 129.177 72.5217 126.703C72.5217 124.229 73.5004 121.856 75.2441 120.101L93.4471 101.909L152.823 161.273L134.609 179.476ZM162.577 151.497L103.223 92.1437L163.904 31.4521C189.038 45.0643 209.665 65.6995 223.268 90.8387L162.577 151.519V151.497Z" fill="#0F1A1C"/>
  </g>
  <defs>
    <clipPath id="clip0_55_253">
      <rect width="256" height="256" fill="white"/>
    </clipPath>
  </defs>
</svg>