<svg width="256" height="256" viewBox="0 0 256 256" fill="none" xmlns="http://www.w3.org/2000/svg">
  <path d="M251.816 95.6953C252.729 89.6466 251.684 83.4837 248.847 78.0818C232.5 47.4486 207.268 22.2143 176.64 5.85766C171.234 3.02228 165.065 1.98512 159.029 2.89696C152.993 3.8088 147.405 6.62211 143.078 10.9278L54.8067 99.1771C47.5366 106.481 43.4552 116.367 43.4552 126.672C43.4552 133.851 45.436 140.827 49.0959 146.868L19.8195 170.307C14.7665 174.334 10.6198 179.382 7.65037 185.121C4.67695 190.868 2.95097 197.178 2.58547 203.638C2.21997 210.098 3.22317 216.563 5.5294 222.608C7.83562 228.654 11.3928 234.144 15.9681 238.719C20.5434 243.294 26.0335 246.852 32.079 249.158C38.1245 251.464 44.589 252.467 51.049 252.102C57.5091 251.736 63.8191 250.01 69.5659 247.037C75.3063 244.067 80.3553 239.919 84.3831 234.864L107.873 205.517C113.921 209.111 120.871 211.049 128.015 211.049C138.178 211.049 147.949 207.126 155.289 200.097L243.776 111.658C248.088 107.329 250.904 101.737 251.816 95.6953Z" fill="white"/>
  <path d="M234.682 85.5228C219.828 57.6866 197.04 34.8906 169.209 20.0274C166.817 18.7733 164.089 18.3145 161.419 18.7178C158.749 19.1211 156.277 20.3655 154.363 22.27L88.9774 87.6779L66.1465 110.465C61.861 114.77 59.4552 120.598 59.4552 126.672C59.4552 132.747 61.861 138.574 66.1465 142.879L72.1633 148.896L29.8051 182.809C26.5059 185.435 23.7988 188.729 21.8609 192.474C19.923 196.22 18.7981 200.332 18.5599 204.542C18.3217 208.753 18.9755 212.966 20.4786 216.906C21.9816 220.846 24.3 224.424 27.2818 227.406C30.2637 230.388 33.8418 232.706 37.7818 234.209C41.7218 235.712 45.9349 236.366 50.1452 236.128C54.3554 235.889 58.4679 234.765 62.2132 232.827C65.9586 230.889 69.2523 228.182 71.8788 224.882L105.792 182.513L111.808 188.541C116.17 192.718 121.976 195.05 128.015 195.05C134.055 195.05 139.861 192.718 144.222 188.541L167.053 165.71L232.439 100.368C234.346 98.4531 235.592 95.9795 235.996 93.3074C236.399 90.6353 235.939 87.9152 234.682 85.5228ZM134.53 178.914C132.774 180.6 130.434 181.542 127.999 181.542C125.564 181.542 123.224 180.6 121.468 178.914L104.643 162.1L61.2346 216.382C59.8009 218.153 58.0112 219.602 55.9813 220.637C53.9515 221.671 51.7269 222.267 49.4518 222.386C47.1767 222.506 44.902 222.146 42.7751 221.329C40.6482 220.513 38.7167 219.258 37.1058 217.647C35.4948 216.037 34.2405 214.105 33.4241 211.978C32.6077 209.851 32.2474 207.576 32.3667 205.301C32.486 203.026 33.0821 200.802 34.1165 198.772C35.1508 196.742 36.6003 194.952 38.3708 193.519L92.675 150.067L75.8061 133.241C74.0813 131.505 73.1132 129.158 73.1132 126.71C73.1132 124.263 74.0813 121.915 75.8061 120.179L93.8127 102.184L152.547 160.908L134.53 178.914ZM162.196 151.237L103.483 92.5242L163.509 32.4876C188.372 45.9529 208.777 66.3654 222.233 91.2333L162.196 151.259V151.237Z" fill="#0F1A1C"/>
</svg>