<svg xmlns="http://www.w3.org/2000/svg" width="256" height="256" viewBox="0 0 256 256" fill="none">
  <path d="M218.72 8.31787L37.2519 8.31863C29.583 8.33223 22.232 11.3847 16.8092 16.8075C11.3864 22.2303 8.33391 29.5813 8.32031 37.2502L8.32084 80.6086C8.37847 87.7032 11.0488 94.5277 15.8213 99.7774C17.0508 101.13 18.3976 102.353 19.8403 103.437L19.8402 218.027C19.8732 225.894 23.025 233.493 28.6037 239.039C34.1782 244.581 41.7217 247.687 49.5817 247.679L206.401 247.679C214.261 247.687 221.822 244.581 227.397 239.039C232.976 233.493 236.127 225.961 236.16 218.095V103.437C237.603 102.353 238.95 101.13 240.179 99.7774C244.952 94.5277 247.623 87.6382 247.68 80.5436L247.68 37.2502C247.667 29.5812 244.614 22.2303 239.191 16.8075C233.769 11.3848 226.389 8.33149 218.72 8.31787Z" fill="white"/>
  <path d="M218.72 24.3203H37.2801C33.8447 24.3264 30.5518 25.6938 28.1227 28.1229C25.6935 30.5521 24.3262 33.845 24.3201 37.2803V80.4803C24.3457 83.6396 25.5348 86.6786 27.6601 89.0163C29.7853 91.3541 32.6975 92.8266 35.8401 93.1523V218.029C35.8553 221.659 37.3095 225.134 39.8838 227.694C42.458 230.253 45.9421 231.686 49.5719 231.68H206.428C210.058 231.686 213.542 230.253 216.116 227.694C218.691 225.134 220.145 221.659 220.16 218.029V93.1523C223.303 92.8266 226.215 91.3541 228.34 89.0163C230.465 86.6786 231.654 83.6396 231.68 80.4803V37.2803C231.674 33.845 230.307 30.5521 227.877 28.1229C225.448 25.6938 222.155 24.3264 218.72 24.3203ZM38.7201 38.7203H217.28V79.0403H38.7201V38.7203ZM50.2401 218.029V93.4403H205.76L206.405 217.28L50.2401 218.029ZM166.592 128V142.4H89.4081V128H166.592Z" fill="#0F1A1C"/>
</svg>