<svg xmlns="http://www.w3.org/2000/svg" width="256" height="256" fill="none" viewBox="0 0 256 256">
  <path fill="#fff" d="M82.846 44.672h-48.67C15.301 44.672 0 59.973 0 78.848v131.648c0 18.875 15.301 34.176 34.176 34.176h187.648c18.875 0 34.176-15.301 34.176-34.176V78.848c0-18.875-15.301-34.176-34.176-34.176h-48.692A45.405 45.405 0 0 0 127.989 4.1a45.4 45.4 0 0 0-45.143 40.572Z"/>
  <path fill="#0F1A1C" d="M221.811 60.699H34.189A18.121 18.121 0 0 0 16 78.697V210.7a18.119 18.119 0 0 0 18.189 17.999H221.81A18.12 18.12 0 0 0 240 210.7V78.697A18.121 18.121 0 0 0 221.811 60.7ZM226 210.7a4.096 4.096 0 0 1-4.189 3.999H34.189A4.102 4.102 0 0 1 30 210.7V78.697a4.1 4.1 0 0 1 4.189-3.998H221.81a4.097 4.097 0 0 1 4.19 3.998V210.7ZM83.2 178.624c.759 5.545 3.675 10.622 7.916 14.275a22.949 22.949 0 0 0 15.268 5.56h43.21a20.77 20.77 0 0 0 15.948-4.835 20.77 20.77 0 0 0 7.258-15v-28.325H83.2v28.325Zm13.989-14.325h61.6v14.325c0 5.264-6.429 5.835-9.195 5.835h-43.21a8.851 8.851 0 0 1-9.195-8.4v-11.76Zm15.4-114.8h-14a29.398 29.398 0 0 1 50.189-20.79 29.402 29.402 0 0 1 8.611 20.79h-14a15.4 15.4 0 0 0-30.8 0Zm-18.189 78.4H72v-22.4h22.4v22.4Zm67.2-22.4H184v22.4h-22.4v-22.4Z"/>
</svg>