<svg xmlns="http://www.w3.org/2000/svg" width="256" height="256" viewBox="0 0 256 256" fill="none">
  <path d="M166.72 23.3602H89.2798V19.2117C89.2798 10.3752 82.1164 3.21172 73.2798 3.21172H58.8798C50.0433 3.21172 42.8798 10.3752 42.8798 19.2117V23.3607C33.7312 23.4088 24.9681 27.064 18.4958 33.5362C11.9855 40.0465 8.32548 48.8749 8.31982 58.0819L8.31983 216.479C8.32548 225.686 11.9855 234.514 18.4958 241.024C25.0062 247.535 33.8344 251.195 43.0415 251.2H212.958C222.165 251.195 230.994 247.535 237.504 241.024C244.014 234.514 247.674 225.686 247.68 216.479V58.0819C247.674 48.8748 244.014 40.0465 237.504 33.5362C231.032 27.064 222.268 23.4088 213.12 23.3607V19.2002C213.12 10.3636 205.956 3.2002 197.12 3.2002H182.72C173.883 3.2002 166.72 10.3636 166.72 19.2002V23.3602Z" fill="white"/>
  <path d="M212.948 39.3602H197.12V19.2002H182.72V39.3602H73.2798V19.2117H58.8798V39.3602H43.0513C38.0844 39.3632 33.3217 41.3377 29.8095 44.8499C26.2974 48.3621 24.3229 53.1247 24.3198 58.0917V216.469C24.3229 221.436 26.2974 226.198 29.8095 229.71C33.3217 233.223 38.0844 235.197 43.0513 235.2H212.948C217.915 235.197 222.678 233.223 226.19 229.71C229.702 226.198 231.677 221.436 231.68 216.469V58.0917C231.677 53.1247 229.702 48.3621 226.19 44.8499C222.678 41.3377 217.915 39.3632 212.948 39.3602ZM43.0513 53.7602H58.8798V65.2802H73.2798V53.7602H182.72V65.2802H197.12V53.7602H212.948C214.096 53.7632 215.196 54.2206 216.008 55.0322C216.819 55.8439 217.277 56.9439 217.28 58.0917V96.9602H38.7198V58.0917C38.7229 56.9439 39.1802 55.8439 39.9919 55.0322C40.8035 54.2206 41.9035 53.7632 43.0513 53.7602ZM212.948 220.8H43.0513C41.9035 220.797 40.8035 220.34 39.9919 219.528C39.1802 218.717 38.7229 217.617 38.7198 216.469V111.36H217.28V216.469C217.274 217.616 216.815 218.714 216.004 219.525C215.193 220.336 214.095 220.794 212.948 220.8Z" fill="#0F1A1C"/>
</svg>