<svg xml="http://www.w3.org/2000/svg" width="256" height="256" fill="none" viewBox="0 0 256 256">
  <path fill="#fff" d="M247.64 70.173A46.134 46.134 0 0 0 234.226 37.9l-16.192-16.192a46.124 46.124 0 0 0-64.681-.37l-136.4 133.496a29.006 29.006 0 0 0-8.633 20.553v43.315a28.927 28.927 0 0 0 28.9 28.977h43.294a29.411 29.411 0 0 0 11.207-2.276 29.048 29.048 0 0 0 9.404-6.374L234.579 102.59a46.139 46.139 0 0 0 13.061-32.417Z"/>
  <path fill="#0F1A1C" d="m222.879 49.18-16.128-16.128a30.128 30.128 0 0 0-42.244-.242L28.191 166.223a13.006 13.006 0 0 0-3.871 9.216v43.281a12.925 12.925 0 0 0 12.914 12.96h43.28a13.028 13.028 0 0 0 9.216-3.882L223.11 91.436a30.135 30.135 0 0 0-.23-42.256ZM79.892 217.246H38.72v-41.173L149.819 67.382l38.765 38.73L79.892 217.246Zm132.93-135.879-14.17 14.48-38.534-38.534 14.48-14.17a15.692 15.692 0 0 1 22.004.116l16.128 16.128a15.716 15.716 0 0 1 .092 21.98Z"/>
</svg>