<svg xml="http://www.w3.org/2000/svg" width="256" height="256" viewBox="0 0 256 256" fill="none">
  <g clip-path="url(#clip0_98_51)">
    <path d="M256 128C256 198.692 198.692 256 128 256C57.3076 256 0 198.692 0 128C0 57.3076 57.3076 0 128 0C198.692 0 256 57.3076 256 128Z" fill="white"/>
    <path d="M128 239C106.046 239 84.5856 232.49 66.3317 220.293C48.0779 208.096 33.8507 190.76 25.4494 170.478C17.0481 150.195 14.8499 127.877 19.1329 106.345C23.4158 84.8131 33.9876 65.0348 49.5112 49.5112C65.0348 33.9876 84.8131 23.4158 106.345 19.1329C127.877 14.8499 150.195 17.0481 170.478 25.4494C190.76 33.8507 208.096 48.0779 220.293 66.3317C232.49 84.5856 239 106.046 239 128C238.968 157.429 227.263 185.644 206.453 206.453C185.644 227.263 157.429 238.968 128 239ZM128 30.875C108.791 30.875 90.0124 36.5713 74.0403 47.2436C58.0682 57.9158 45.6194 73.0846 38.2682 90.8319C30.9171 108.579 28.9937 128.108 32.7413 146.948C36.4889 165.789 45.7391 183.095 59.3223 196.678C72.9055 210.261 90.2115 219.511 109.052 223.259C127.892 227.006 147.421 225.083 165.168 217.732C182.915 210.381 198.084 197.932 208.756 181.96C219.429 165.988 225.125 147.21 225.125 128C225.096 102.25 214.853 77.5628 196.645 59.3547C178.437 41.1466 153.75 30.9044 128 30.875ZM121.973 94.2005C120.168 93.1565 118.674 91.6508 117.644 89.8382C116.603 87.9918 116.056 85.9082 116.056 83.7887C116.056 81.6693 116.603 79.5856 117.644 77.7392C118.676 75.9521 120.175 74.4647 121.973 73.4546C124.741 71.8883 128.012 71.4643 131.088 72.2728C134.165 73.0814 136.804 75.0585 138.445 77.7836C139.533 79.5929 140.099 81.6686 140.077 83.7776C140.078 85.8833 139.525 87.9521 138.473 89.776C137.42 91.5999 135.906 93.1144 134.083 94.1672C132.245 95.2629 130.14 95.8313 128 95.81C125.883 95.8245 123.801 95.2686 121.973 94.2005ZM137.002 188.14H119.12V107.176H137.035L137.002 188.14Z" fill="#0F1A1C"/>
  </g>
  <defs>
    <clipPath id="clip0_98_51">
      <rect width="256" height="256" fill="white"/>
    </clipPath>
  </defs>
</svg>