<svg xmlns="http://www.w3.org/2000/svg" viewBox="0 0 24 24" version="1.1" style="background-color: #cfcae5" id="Alert-Circle--Streamline-Ultimate">
	<path d="M11.16 1.153968C9.132984 1.3260720000000001 7.334664 1.978224 5.693112 3.136536C4.771416 3.7868880000000003 3.7868880000000003 4.771416 3.136536 5.693112C1.808664 7.574952 1.12824 9.711816 1.12824 12C1.12824 14.167176 1.7423760000000001 16.210800000000003 2.9349600000000002 18.012C3.8012639999999998 19.320456 5.0388 20.506128 6.384 21.316488C8.088096 22.343088 9.997128 22.871760000000002 12 22.871760000000002C14.9406 22.871760000000002 17.679552 21.724992 19.744224000000003 19.629336000000002C20.801208 18.556488 21.55944 17.392752 22.127136 15.972C22.876248 14.09724 23.070144 11.899056 22.665912000000002 9.864C22.300824000000002 8.026056 21.453792 6.301488 20.214024 4.872C19.934904 4.550136 19.37712 3.994968 19.068 3.731304C17.480064000000002 2.376912 15.566160000000002 1.5168000000000001 13.488 1.223688C12.865704000000001 1.135896 11.761944000000002 1.102848 11.16 1.153968M11.155512 2.665248C9.111191999999999 2.8470720000000003 7.149792000000001 3.7223520000000003 5.631768 5.130192C3.92244 6.71544 2.869344 8.864184 2.6647440000000002 11.184000000000001C2.633424 11.53932 2.633424 12.460680000000002 2.6647440000000002 12.816C2.848056 14.894568 3.711024 16.837992 5.130192 18.368232C6.71472 20.076768 8.86524 21.130752 11.184000000000001 21.335256C11.53932 21.366576000000002 12.460680000000002 21.366576000000002 12.816 21.335256C13.984560000000002 21.2322 15.048504 20.934383999999998 16.116 20.411568C17.09052 19.93428 17.855928 19.387536 18.621744 18.621744C19.387536 17.855928 19.93428 17.09052 20.411568 16.116C20.934383999999998 15.048504 21.2322 13.984560000000002 21.335256 12.816C21.388416 12.21324 21.361224 11.252736 21.274128 10.656C20.96436 8.533704 19.942128 6.589848 18.368232 5.130192C16.838952000000003 3.7119120000000003 14.893248000000002 2.8479360000000002 12.816 2.6647440000000002C12.502248000000002 2.637072 11.46864 2.6373840000000004 11.155512 2.665248M11.669328 5.257128C11.501664 5.340912 11.394120000000001 5.452392 11.313072 5.6264400000000006L11.25648 5.748 11.25648 9.636000000000001L11.25648 13.524000000000001 11.313072 13.645560000000001C11.427072 13.890384 11.622552 14.045544 11.864856000000001 14.083535999999999C12.228096 14.140512 12.535152 13.975871999999999 12.687864 13.64232L12.744576 13.518456 12.738287999999999 9.609216L12.732000000000001 5.7 12.677856 5.598672C12.591936 5.437896 12.488208 5.335848 12.330672 5.257128C12.205704 5.19468 12.157416000000001 5.184 12 5.184C11.842584 5.184 11.794296 5.19468 11.669328 5.257128M11.808 15.315408000000001C11.480736 15.36948 11.169599999999999 15.607512 11.014992000000001 15.922104000000001C10.942848 16.068936 10.932288 16.115208 10.924032 16.320816C10.906632 16.75404 11.057616 17.060184 11.407344 17.300808C11.740224 17.529816 12.259776 17.529816 12.592656 17.300808C12.942383999999999 17.060184 13.093368 16.75404 13.075968 16.320816C13.067712000000002 16.115208 13.057152 16.068936 12.985008 15.922104000000001C12.825528000000002 15.597576 12.519120000000001 15.36924 12.168000000000001 15.313248000000002C11.992704000000002 15.285288 11.990304 15.285288 11.808 15.315408000000001" stroke="none" fill="#000000" fill-rule="evenodd"></path>
</svg>