<svg xmlns="http://www.w3.org/2000/svg" viewBox="0 0 24 24" version="1.1" id="Alert-Circle--Streamline-Ultimate">
	<path d="M11.040000000000001 0.035904C9.446328 0.170832 8.004984 0.574752 6.612 1.2768000000000002C2.547336 3.325392 0 7.456608 0 12C0 13.891584000000002 0.430752 15.70932 1.2768000000000002 17.388C3.324984 21.451872 7.457496 24 12 24C13.889111999999999 24 15.703296 23.569944 17.388 22.722792000000002C19.507656 21.656928 21.267984000000002 19.983552 22.444584000000003 17.916C23.304456000000002 16.404984000000002 23.866968 14.548704 23.966616000000002 12.89328C23.975592 12.744384 23.992176 12.616848000000001 24.003456 12.609863999999998C24.01476 12.60288 24.023832000000002 12.314304 24.02364 11.968584C24.023424000000002 11.622864 24.014256000000003 11.354208 24.00324 11.37156C23.99148 11.390136 23.976528000000002 11.286336 23.966952000000003 11.11956C23.872152 9.468672000000002 23.307096 7.599624 22.444584000000003 6.0840000000000005C20.588616000000002 2.822664 17.317152 0.606696 13.620000000000001 0.106584C12.849120000000001 0.002304 11.782104 -0.026928000000000004 11.040000000000001 0.035904M11.256 1.52712C9.80256 1.655496 8.6532 1.963656 7.427904 2.553528C5.321688 3.5674560000000004 3.5674560000000004 5.321688 2.553528 7.427904C2.027976 8.519616 1.71852 9.584952 1.567056 10.824C1.5064080000000002 11.320152 1.5064080000000002 12.679848 1.567056 13.176C1.81272 15.185736 2.561544 16.996488 3.7758 18.517104000000003C5.399928 20.55108 7.65804 21.8952 10.200000000000001 22.341144C10.841736 22.453704000000002 11.13348 22.475496 12 22.475496C12.866520000000001 22.475496 13.158263999999999 22.453704000000002 13.8 22.341144C16.060752 21.944544 18.15036 20.808624 19.687992 19.140432C21.236616 17.460288 22.148112 15.479424 22.432512 13.176C22.493904 12.67884 22.493904 11.321159999999999 22.432512 10.824C22.298568 9.739032 22.055880000000002 8.826504 21.645312 7.8639600000000005C20.607072000000002 5.4299040000000005 18.627648 3.437256 16.199616000000002 2.381856C15.23208 1.961328 14.26824 1.70052 13.200000000000001 1.570248C12.891383999999999 1.532592 11.534688000000001 1.5025199999999999 11.256 1.52712M11.860152000000001 4.51548C11.623776000000001 4.553688 11.42568 4.71264 11.313072 4.95444L11.25648 5.0760000000000005 11.25624 9.361728C11.255976 14.194439999999998 11.23824 13.769904 11.450064000000001 14.001696C11.607912 14.1744 11.7612 14.241144 12 14.241144C12.2388 14.241144 12.392088 14.1744 12.549936 14.001696C12.76176 13.769904 12.744024 14.194439999999998 12.74376 9.361728L12.74352 5.0760000000000005 12.686928 4.95444C12.615167999999999 4.800336000000001 12.506160000000001 4.675896000000001 12.376272 4.599768C12.286416000000001 4.547112 12.231888 4.531464000000001 12.036 4.502016C12.009599999999999 4.498056 11.930472 4.504104 11.860152000000001 4.51548M0.010488 12C0.010488 12.349800000000002 0.013848 12.492912 0.017928 12.318C0.022032000000000003 12.143088 0.022032000000000003 11.856912000000001 0.017928 11.682C0.013848 11.507088 0.010488 11.6502 0.010488 12M11.76 15.768768000000001C11.477544 15.828072 11.147472 16.076904 11.010504000000001 16.3338C10.772376 16.780488000000002 10.849632 17.309904 11.204664 17.664216C11.439096000000001 17.898192 11.680224 18 12 18C12.319776 18 12.560903999999999 17.898192 12.795336 17.664216C13.278432 17.182104000000002 13.223904 16.392696 12.679056 15.980400000000001C12.597936 15.919008000000002 12.469128000000001 15.845424 12.392832000000002 15.816863999999999C12.234024 15.757464 11.925552000000001 15.734015999999999 11.76 15.768768000000001" stroke="none" fill="#000000" fill-rule="evenodd"></path>
</svg>