<svg width="256" height="256" viewBox="0 0 256 256" fill="none" xmlns="http://www.w3.org/2000/svg">
<path d="M162.56 58.8799C158.022 58.8799 153.527 59.7738 149.334 61.5106C145.141 63.2474 141.332 65.7931 138.122 69.0023C134.913 72.2115 132.368 76.0213 130.631 80.2143C128.894 84.4074 128 88.9014 128 93.4399C128 97.9784 128.894 102.472 130.631 106.665C132.368 110.858 134.913 114.668 138.122 117.877C141.332 121.087 145.141 123.632 149.334 125.369C153.527 127.106 158.022 128 162.56 128C171.726 128 180.516 124.359 186.998 117.877C193.479 111.396 197.12 102.606 197.12 93.4399C197.12 84.274 193.479 75.4835 186.998 69.0023C180.516 62.521 171.726 58.8799 162.56 58.8799ZM162.56 113.6C157.213 113.6 152.085 111.476 148.305 107.695C144.524 103.914 142.4 98.7866 142.4 93.4399C142.4 88.0931 144.524 82.9653 148.305 79.1846C152.085 75.4039 157.213 73.2799 162.56 73.2799C167.907 73.2799 173.035 75.4039 176.815 79.1846C180.596 82.9653 182.72 88.0931 182.72 93.4399C182.72 98.7866 180.596 103.914 176.815 107.695C173.035 111.476 167.907 113.6 162.56 113.6Z" fill="#0F1A1C"/>
<path d="M212.96 24.3203H43.0398C38.0768 24.3264 33.3189 26.3006 29.8095 29.81C26.3002 33.3194 24.3259 38.0773 24.3198 43.0403V212.96C24.3259 217.923 26.3002 222.681 29.8095 226.191C33.3189 229.7 38.0768 231.674 43.0398 231.68H212.96C217.923 231.674 222.681 229.7 226.19 226.191C229.699 222.681 231.674 217.923 231.68 212.96V43.0403C231.674 38.0773 229.699 33.3194 226.19 29.81C222.681 26.3006 217.923 24.3264 212.96 24.3203ZM38.7198 212.96V182.052L69.2478 151.501C71.7429 149.003 74.7059 147.021 77.9674 145.669C81.229 144.317 84.7251 143.621 88.2558 143.621C91.7866 143.621 95.2827 144.317 98.5442 145.669C101.806 147.021 104.769 149.003 107.264 151.501L173.043 217.28H43.0398C41.8941 217.28 40.7953 216.825 39.9851 216.015C39.175 215.205 38.7198 214.106 38.7198 212.96ZM217.28 212.96C217.28 214.106 216.825 215.205 216.015 216.015C215.204 216.825 214.106 217.28 212.96 217.28H193.376L117.344 141.317C109.606 133.588 99.1174 129.247 88.1809 129.247C77.2445 129.247 66.7554 133.588 59.0181 141.317L38.7198 161.696V43.0403C38.7198 41.8946 39.175 40.7958 39.9851 39.9856C40.7953 39.1755 41.8941 38.7203 43.0398 38.7203H212.96C214.106 38.7203 215.204 39.1755 216.015 39.9856C216.825 40.7958 217.28 41.8946 217.28 43.0403V212.96Z" fill="#0F1A1C"/>
</svg>
