<svg xmlns="http://www.w3.org/2000/svg" width="254" height="254" viewBox="0 0 254 254" fill="none">
  <path d="M254 127C254 197.14 197.14 254 127 254C56.8598 254 0 197.14 0 127C0 56.8598 56.8598 0 127 0C197.14 0 254 56.8598 254 127Z" fill="white"/>
  <path d="M127 238.125C105.022 238.125 83.5367 231.608 65.2623 219.397C46.9879 207.186 32.7447 189.831 24.3339 169.526C15.9231 149.22 13.7225 126.877 18.0103 105.321C22.2981 83.7645 32.8817 63.9639 48.4228 48.4228C63.9639 32.8817 83.7645 22.2981 105.321 18.0103C126.877 13.7225 149.22 15.9231 169.526 24.3339C189.831 32.7447 207.186 46.9879 219.397 65.2623C231.608 83.5367 238.125 105.022 238.125 127C238.093 156.462 226.374 184.709 205.542 205.542C184.709 226.374 156.462 238.093 127 238.125ZM127 29.7657C107.769 29.7657 88.9696 35.4684 72.9795 46.1526C56.9894 56.8369 44.5266 72.0228 37.1672 89.79C29.8078 107.557 27.8822 127.108 31.634 145.97C35.3858 164.831 44.6465 182.157 58.245 195.755C71.8434 209.354 89.1689 218.614 108.031 222.366C126.892 226.118 146.443 224.192 164.21 216.833C181.977 209.473 197.163 197.011 207.847 181.021C218.532 165.03 224.234 146.231 224.234 127C224.205 101.221 213.951 76.5061 195.723 58.2774C177.494 40.0488 152.779 29.7951 127 29.7657ZM120.966 93.1625C119.159 92.1172 117.663 90.6099 116.632 88.7953C115.59 86.9468 115.043 84.8608 115.043 82.739C115.043 80.6171 115.59 78.5311 116.632 76.6826C117.666 74.8935 119.166 73.4045 120.966 72.3932C123.738 70.8252 127.012 70.4007 130.092 71.2101C133.172 72.0195 135.814 73.9989 137.457 76.7271C138.546 78.5384 139.113 80.6165 139.09 82.7278C139.092 84.8358 138.538 86.907 137.484 88.7329C136.431 90.5589 134.915 92.0751 133.09 93.1291C131.249 94.226 129.142 94.7951 127 94.7738C124.88 94.7883 122.796 94.2317 120.966 93.1625ZM136.012 187.208H118.11V106.153H136.046L136.012 187.208Z" fill="#0F1A1C"/>
</svg>