<svg xmlns="http://www.w3.org/2000/svg" width="256" height="256" fill="none" viewBox="0 0 256 256">
  <g clip-path="url(#a)">
    <path fill="#fff" d="M256 128c0 70.692-57.308 128-128 128C57.308 256 0 198.692 0 128 0 57.308 57.308 0 128 0c70.692 0 128 57.308 128 128Z"/>
    <path fill="#0F1A1C" d="M128 240A112.003 112.003 0 0 1 48.804 48.804 112 112 0 0 1 240 128a112.125 112.125 0 0 1-112 112Zm0-210a98 98 0 1 0 98 98 98.114 98.114 0 0 0-98-98Zm-6.082 63.896a11.86 11.86 0 0 1-4.368-4.401 12.432 12.432 0 0 1 0-12.209 11.649 11.649 0 0 1 4.368-4.323 12.321 12.321 0 0 1 16.621 4.368 11.507 11.507 0 0 1 1.647 6.048 12.097 12.097 0 0 1-6.048 10.483A11.763 11.763 0 0 1 128 95.52a11.899 11.899 0 0 1-6.082-1.624Zm15.165 94.786H119.04v-81.693h18.077l-.034 81.693Z"/>
  </g>
  <defs>
    <clipPath id="a">
      <path fill="#fff" d="M0 0h256v256H0z"/>
    </clipPath>
  </defs>
</svg>