<svg xmlns="http://www.w3.org/2000/svg" width="256" height="256" viewBox="0 0 256 256" fill="none">
  <path d="M255 128C255 198.14 198.14 255 128 255C57.8598 255 1 198.14 1 128C1 57.8598 57.8598 1 128 1C198.14 1 255 57.8598 255 128Z" fill="white"/>
  <path d="M128 239.125C106.022 239.125 84.5367 232.608 66.2623 220.397C47.9879 208.186 33.7447 190.831 25.3339 170.526C16.9231 150.22 14.7225 127.877 19.0103 106.321C23.2981 84.7645 33.8817 64.9639 49.4228 49.4228C64.9639 33.8817 84.7645 23.2981 106.321 19.0103C127.877 14.7225 150.22 16.9231 170.526 25.3339C190.831 33.7447 208.186 47.9879 220.397 66.2623C232.608 84.5367 239.125 106.022 239.125 128C239.093 157.462 227.374 185.709 206.542 206.542C185.709 227.374 157.462 239.093 128 239.125ZM128 30.7657C108.769 30.7657 89.9696 36.4684 73.9795 47.1526C57.9894 57.8369 45.5266 73.0228 38.1672 90.79C30.8078 108.557 28.8822 128.108 32.634 146.97C36.3858 165.831 45.6465 183.157 59.245 196.755C72.8434 210.354 90.1689 219.614 109.031 223.366C127.892 227.118 147.443 225.192 165.21 217.833C182.977 210.473 198.163 198.011 208.847 182.021C219.532 166.03 225.234 147.231 225.234 128C225.205 102.221 214.951 77.5061 196.723 59.2774C178.494 41.0488 153.779 30.7951 128 30.7657ZM121.966 94.1625C120.159 93.1172 118.663 91.6099 117.632 89.7953C116.59 87.9468 116.043 85.8608 116.043 83.739C116.043 81.6171 116.59 79.5311 117.632 77.6826C118.666 75.8935 120.166 74.4045 121.966 73.3932C124.738 71.8252 128.012 71.4007 131.092 72.2101C134.172 73.0195 136.814 74.9989 138.457 77.7271C139.546 79.5384 140.113 81.6165 140.09 83.7278C140.092 85.8358 139.538 87.907 138.484 89.7329C137.431 91.5589 135.915 93.0751 134.09 94.1291C132.249 95.226 130.142 95.7951 128 95.7738C125.88 95.7883 123.796 95.2317 121.966 94.1625ZM137.012 188.208H119.11V107.153H137.046L137.012 188.208Z" fill="#0F1A1C"/>
</svg>