<svg xmlns="http://www.w3.org/2000/svg" width="256" height="256" viewBox="0 0 256 256" fill="none">
  <g clip-path="url(#clip0_129_1334)">
    <path fill-rule="evenodd" clip-rule="evenodd" d="M251.217 215.74C257.594 222.118 257.594 232.459 251.217 238.837L240.822 249.232C234.445 255.609 224.106 255.61 217.728 249.234L200.345 231.859C191.467 235.221 181.823 236.362 172.27 235.075C158.019 233.156 145.002 225.974 135.779 214.942C134.252 213.116 132.847 211.206 131.569 209.225C130.84 215.887 127.864 222.141 123.08 226.924C117.545 232.459 110.013 235.575 102.185 235.589L46.3014 235.589C38.4735 235.575 30.9702 232.459 25.435 226.924C19.8998 221.389 16.7839 213.857 16.77 206.029L16.7701 150.146C16.784 142.318 19.8998 134.814 25.435 129.279C30.2774 124.437 36.626 121.446 43.3805 120.764C39.8553 118.519 36.577 115.892 33.6078 112.922C28.2696 107.584 24.0351 101.247 21.1461 94.2721C18.2571 87.2974 16.7701 79.8219 16.7701 72.2726C16.7701 64.7232 18.2571 57.2478 21.1461 50.2731C24.0351 43.2984 28.2696 36.9611 33.6078 31.6229C38.946 26.2847 45.2834 22.0502 52.258 19.1611C59.2327 16.2721 66.7082 14.7852 74.2575 14.7852C89.5041 14.7852 104.126 20.8419 114.907 31.6229C117.893 34.6085 120.516 37.8887 122.749 41.3953C123.431 34.6409 126.422 28.2923 131.264 23.4501C136.799 17.9149 144.303 14.7991 152.131 14.7852L152.16 14.7852L208.043 14.7852C215.871 14.7991 223.374 17.9149 228.909 23.4501C234.444 28.9852 237.56 36.4885 237.574 44.3165L237.574 100.229C237.56 108.057 234.444 115.56 228.909 121.095C224.106 125.899 217.82 128.88 211.126 129.593C213.105 130.868 215.014 132.268 216.839 133.791C227.881 143.001 235.078 156.01 237.013 170.259C238.311 179.814 237.179 189.463 233.825 198.349L251.217 215.74Z" fill="white"/>
    <path d="M239.67 227.287L213.872 201.488C219.735 193.019 222.218 182.663 220.832 172.455C219.445 162.248 214.29 152.929 206.38 146.331C198.469 139.732 188.377 136.332 178.086 136.8C167.796 137.267 158.053 141.568 150.773 148.856C143.493 156.144 139.203 165.892 138.748 176.183C138.292 186.473 141.703 196.562 148.311 204.465C154.918 212.368 164.243 217.513 174.452 218.888C184.66 220.263 195.014 217.768 203.477 211.895L229.276 237.682L239.67 227.287ZM180.089 204.557C173.072 204.557 166.342 201.77 161.38 196.808C156.419 191.846 153.631 185.117 153.631 178.1C153.631 171.083 156.419 164.354 161.38 159.392C166.342 154.43 173.072 151.643 180.089 151.643C187.106 151.643 193.835 154.43 198.797 159.392C203.758 164.354 206.546 171.083 206.546 178.1C206.546 185.117 203.758 191.846 198.797 196.808C193.835 201.77 187.106 204.557 180.089 204.557ZM74.2595 31.1152C68.8549 31.1152 63.5031 32.1798 58.5099 34.248C53.5166 36.3163 48.9797 39.3478 45.158 43.1695C41.3363 46.9911 38.3048 51.5281 36.2366 56.5214C34.1683 61.5146 33.1038 66.8663 33.1038 72.271C33.1038 77.6756 34.1683 83.0274 36.2366 88.0206C38.3048 93.0139 41.3363 97.5508 45.158 101.373C48.9797 105.194 53.5166 108.226 58.5099 110.294C63.5031 112.362 68.8549 113.427 74.2595 113.427C85.1747 113.427 95.6428 109.091 103.361 101.373C111.079 93.6543 115.415 83.1862 115.415 72.271C115.415 61.3558 111.079 50.8877 103.361 43.1695C95.6428 35.4513 85.1747 31.1152 74.2595 31.1152ZM74.2595 98.7283C70.7851 98.7283 67.3447 98.0439 64.1348 96.7143C60.9248 95.3847 58.0082 93.4359 55.5514 90.9791C53.0946 88.5223 51.1458 85.6057 49.8162 82.3958C48.4866 79.1858 47.8022 75.7454 47.8022 72.271C47.8022 68.7966 48.4866 65.3562 49.8162 62.1462C51.1458 58.9363 53.0946 56.0197 55.5514 53.5629C58.0082 51.1061 60.9248 49.1573 64.1348 47.8277C67.3447 46.4981 70.7851 45.8137 74.2595 45.8137C81.2764 45.8137 88.0059 48.6012 92.9676 53.5629C97.9293 58.5246 100.717 65.2541 100.717 72.271C100.717 79.2879 97.9293 86.0174 92.9676 90.9791C88.0059 95.9408 81.2764 98.7283 74.2595 98.7283ZM152.161 113.427H208.016C211.522 113.421 214.883 112.025 217.363 109.545C219.842 107.066 221.238 103.705 221.244 100.198V44.3439C221.238 40.8373 219.842 37.4762 217.363 34.9967C214.883 32.5172 211.522 31.1215 208.016 31.1152H152.161C148.655 31.1215 145.294 32.5172 142.814 34.9967C140.335 37.4762 138.939 40.8373 138.933 44.3439V100.198C138.939 103.705 140.335 107.066 142.814 109.545C145.294 112.025 148.655 113.421 152.161 113.427ZM153.631 45.8137H206.546V98.7283H153.631V45.8137ZM102.187 136.944H46.3324C42.8259 136.951 39.4647 138.346 36.9852 140.826C34.5057 143.305 33.11 146.666 33.1038 150.173V206.027C33.11 209.534 34.5057 212.895 36.9852 215.374C39.4647 217.854 42.8259 219.25 46.3324 219.256H102.187C105.693 219.25 109.054 217.854 111.534 215.374C114.013 212.895 115.409 209.534 115.415 206.027V150.173C115.409 146.666 114.013 143.305 111.534 140.826C109.054 138.346 105.693 136.951 102.187 136.944ZM100.717 204.557H47.8022V151.643H100.717V204.557Z" fill="#0F1A1C"/>
  </g>
  <defs>
    <clipPath id="clip0_129_1334">
      <rect width="256" height="256" fill="white"/>
    </clipPath>
  </defs>
</svg>