<svg xmlns="http://www.w3.org/2000/svg" width="256" height="256" viewBox="0 0 256 256" fill="none">
  <path fill-rule="evenodd" clip-rule="evenodd" d="M248.886 214.087C255.134 220.336 255.134 230.466 248.886 236.715L238.702 246.898C232.455 253.146 222.326 253.147 216.077 246.901L199.047 229.879C190.349 233.172 180.901 234.29 171.542 233.029C157.581 231.149 144.828 224.113 135.792 213.305C134.296 211.516 132.92 209.645 131.668 207.704C130.954 214.231 128.038 220.358 123.351 225.044C117.928 230.467 110.549 233.519 102.88 233.533L48.1317 233.533C40.4627 233.519 33.1117 230.467 27.689 225.044C22.2662 219.621 19.2135 212.242 19.2 204.573L19.2001 149.825C19.2137 142.156 22.2662 134.805 27.689 129.382C32.433 124.638 38.6527 121.708 45.2701 121.04C41.8165 118.84 38.6047 116.266 35.6958 113.357C30.466 108.127 26.3175 101.919 23.4872 95.0857C20.6568 88.2526 19.2001 80.929 19.2001 73.5329C19.2001 66.1369 20.6568 58.8132 23.4872 51.9802C26.3175 45.1471 30.466 38.9385 35.6958 33.7087C40.9256 28.4789 47.1343 24.3304 53.9673 21.5C60.8004 18.6697 68.124 17.2129 75.5201 17.2129C90.457 17.2129 104.782 23.1466 115.344 33.7087C118.269 36.6337 120.839 39.8473 123.027 43.2826C123.695 36.6654 126.625 30.4458 131.369 25.7018C136.792 20.279 144.143 17.2265 151.812 17.2129L151.84 17.2129L206.588 17.2129C214.257 17.2265 221.608 20.2791 227.031 25.7018C232.454 31.1246 235.506 38.4755 235.52 46.1445L235.52 100.921C235.506 108.59 232.454 115.941 227.031 121.364C222.325 126.07 216.167 128.991 209.609 129.69C211.548 130.938 213.418 132.31 215.206 133.802C226.024 142.825 233.074 155.57 234.97 169.529C236.242 178.891 235.134 188.344 231.847 197.049L248.886 214.087Z" fill="white"/>
  <path d="M237.574 225.401L212.299 200.126C218.044 191.829 220.476 181.683 219.118 171.683C217.759 161.683 212.709 152.553 204.959 146.089C197.209 139.624 187.322 136.293 177.24 136.751C167.159 137.209 157.613 141.422 150.481 148.562C143.349 155.702 139.147 165.252 138.701 175.334C138.254 185.416 141.596 195.3 148.069 203.043C154.542 210.785 163.678 215.825 173.679 217.172C183.681 218.519 193.825 216.075 202.115 210.321L227.39 235.585L237.574 225.401ZM179.202 203.133C172.327 203.133 165.735 200.402 160.874 195.541C156.013 190.68 153.282 184.087 153.282 177.213C153.282 170.338 156.013 163.746 160.874 158.885C165.735 154.024 172.327 151.293 179.202 151.293C186.076 151.293 192.669 154.024 197.53 158.885C202.391 163.746 205.122 170.338 205.122 177.213C205.122 184.087 202.391 190.68 197.53 195.541C192.669 200.402 186.076 203.133 179.202 203.133ZM75.5219 33.2129C70.227 33.2129 64.984 34.2558 60.0921 36.2821C55.2003 38.3083 50.7554 41.2783 47.0114 45.0223C43.2673 48.7664 40.2974 53.2112 38.2711 58.1031C36.2448 62.9949 35.2019 68.238 35.2019 73.5329C35.2019 78.8278 36.2448 84.0708 38.2711 88.9627C40.2974 93.8545 43.2673 98.2994 47.0114 102.043C50.7554 105.787 55.2003 108.757 60.0921 110.784C64.984 112.81 70.227 113.853 75.5219 113.853C86.2154 113.853 96.471 109.605 104.032 102.043C111.594 94.482 115.842 84.2264 115.842 73.5329C115.842 62.8394 111.594 52.5838 104.032 45.0223C96.471 37.4609 86.2154 33.2129 75.5219 33.2129ZM75.5219 99.4529C72.118 99.4529 68.7475 98.7824 65.6028 97.4799C62.458 96.1772 59.6006 94.268 57.1937 91.8611C54.7868 89.4542 52.8775 86.5968 51.5749 83.452C50.2723 80.3073 49.6019 76.9368 49.6019 73.5329C49.6019 70.129 50.2723 66.7585 51.5749 63.6137C52.8775 60.469 54.7868 57.6116 57.1937 55.2047C59.6006 52.7978 62.458 50.8885 65.6028 49.5859C68.7475 48.2833 72.118 47.6129 75.5219 47.6129C82.3963 47.6129 88.9892 50.3437 93.8501 55.2047C98.7111 60.0656 101.442 66.6585 101.442 73.5329C101.442 80.4073 98.7111 87.0002 93.8501 91.8611C88.9892 96.722 82.3963 99.4529 75.5219 99.4529ZM151.842 113.853H206.562C209.997 113.847 213.29 112.479 215.719 110.05C218.148 107.621 219.516 104.328 219.522 100.893V46.1729C219.516 42.7376 218.148 39.4447 215.719 37.0155C213.29 34.5864 209.997 33.219 206.562 33.2129H151.842C148.407 33.219 145.114 34.5864 142.685 37.0155C140.255 39.4447 138.888 42.7376 138.882 46.1729V100.893C138.888 104.328 140.255 107.621 142.685 110.05C145.114 112.479 148.407 113.847 151.842 113.853ZM153.282 47.6129H205.122V99.4529H153.282V47.6129ZM102.882 136.893H48.1619C44.7266 136.899 41.4337 138.266 39.0045 140.696C36.5754 143.125 35.208 146.418 35.2019 149.853V204.573C35.208 208.008 36.5754 211.301 39.0045 213.73C41.4337 216.159 44.7266 217.527 48.1619 217.533H102.882C106.317 217.527 109.61 216.159 112.039 213.73C114.468 211.301 115.836 208.008 115.842 204.573V149.853C115.836 146.418 114.468 143.125 112.039 140.696C109.61 138.266 106.317 136.899 102.882 136.893ZM101.442 203.133H49.6019V151.293H101.442V203.133Z" fill="#0F1A1C"/>
</svg>