<svg xmlns="http://www.w3.org/2000/svg" width="256" height="256" viewBox="0 0 256 256" fill="none">
  <g clip-path="url(#clip0_100_436)">
    <path d="M38.2119 160.119C43.6955 163.6 50.0603 165.439 56.5546 165.419H90.5055L90.5054 227.492C90.5229 233.335 92.3321 239.081 95.6889 243.864C99.0455 248.647 103.788 252.286 109.278 254.29C114.767 256.294 120.739 256.566 126.388 255.07C132.026 253.576 137.072 250.393 140.847 245.947L225.456 146.704C229.708 141.747 232.435 135.665 233.308 129.193C234.178 122.743 233.171 116.162 230.398 110.263C227.665 104.355 223.289 99.3579 217.793 95.8684C212.294 92.3772 205.907 90.5434 199.395 90.585H165.474L165.473 28.4443C165.449 22.5972 163.633 16.8981 160.271 12.1141C156.909 7.33016 152.162 3.69061 146.669 1.68623C141.223 -0.187018 135.058 -0.482744 129.498 1.0229C123.939 2.52854 118.958 5.66699 115.201 10.0328L30.5061 109.357C26.2945 114.318 23.5933 120.382 22.7226 126.831C21.8519 133.28 22.8482 139.843 25.5935 145.743C28.3387 151.643 32.7179 156.632 38.2119 160.119Z" fill="white"/>
    <path d="M215.897 117.022C214.455 113.882 212.135 111.225 209.217 109.373C206.3 107.521 202.909 106.552 199.454 106.582H149.474V28.5094C149.463 25.9319 148.662 23.4197 147.18 21.3109C145.698 19.2021 143.606 17.598 141.185 16.7144C138.765 15.8822 136.151 15.7949 133.681 16.4638C131.211 17.1327 128.998 18.5272 127.329 20.4669L42.7031 119.71C40.4714 122.339 39.04 125.552 38.5787 128.969C38.1173 132.386 38.6452 135.864 40.0999 138.99C41.5546 142.116 43.875 144.76 46.7862 146.608C49.6974 148.456 53.0773 149.43 56.5254 149.416H106.506V227.489C106.513 230.06 107.309 232.566 108.786 234.67C110.262 236.775 112.349 238.376 114.764 239.257C117.179 240.139 119.806 240.258 122.291 239.6C124.776 238.942 127 237.537 128.662 235.576L213.298 136.299C215.548 133.683 216.991 130.471 217.452 127.051C217.913 123.632 217.373 120.141 215.897 117.022Z" fill="#0F1A1C"/>
  </g>
  <defs>
    <clipPath id="clip0_100_436">
      <rect width="256" height="256" fill="white"/>
    </clipPath>
  </defs>
</svg>