<svg xmlns="http://www.w3.org/2000/svg" width="256" height="256" viewBox="0 0 256 256" fill="none">
  <path d="M239.748 48.9287C231.4 40.5768 220.078 35.8785 208.269 35.865H190.503L181.975 24.7878C179.314 21.3657 175.909 18.5941 172.018 16.6829C168.127 14.7717 163.852 13.7711 159.517 13.7568L96.9818 13.7569C92.6043 13.7656 88.2868 14.7745 84.3587 16.7066C80.4307 18.6387 76.9962 21.4429 74.3173 24.9049L65.8815 35.8541L47.7357 35.8541C35.9296 35.8721 24.6122 40.57 16.264 48.9181C7.91585 57.2663 3.21795 68.5837 3.19998 80.3898L3.19995 186.157C3.22237 197.96 7.92112 209.304 16.2672 217.65C24.6133 225.996 35.9265 230.694 47.7296 230.717L208.24 230.718C220.043 230.695 231.387 225.996 239.733 217.65C248.079 209.304 252.777 197.99 252.8 186.187V80.4128C252.791 68.6037 248.097 57.2806 239.748 48.9287Z" fill="white"/>
  <path fill-rule="evenodd" clip-rule="evenodd" d="M208.251 51.8645C215.822 51.8732 223.08 54.8853 228.432 60.2397C233.785 65.5942 236.794 72.8536 236.8 80.4245V186.156C236.786 193.727 233.772 200.983 228.419 206.335C223.066 211.688 215.81 214.702 208.24 214.716H47.7599C40.1898 214.702 32.9338 211.688 27.5809 206.335C22.2279 200.983 19.2143 193.727 19.2 186.156V80.4136C19.2115 72.8426 22.2241 65.5849 27.5777 60.2314C32.9312 54.8778 40.1889 51.8651 47.7599 51.8536H73.7523L86.9715 34.6959C88.1584 33.1619 89.6802 31.9194 91.4206 31.0633C93.1611 30.2073 95.0741 29.7602 97.0137 29.7563H159.465C161.372 29.7626 163.252 30.2028 164.964 31.0435C166.676 31.8842 168.173 33.1034 169.344 34.6088L182.628 51.8645H208.251ZM174.08 119.678H136.32V81.9188H119.68V119.678H81.9199V136.318H119.68V174.079H136.32V136.318H174.08V119.678Z" fill="#0F1A1C"/>
</svg>