<svg xmlns="http://www.w3.org/2000/svg" width="256" height="256" viewBox="0 0 256 256" fill="none">
  <path d="M201.56 74.4523C197.156 74.4523 192.775 75.0535 188.542 76.2384C177.632 70.8925 166.06 67.0667 154.15 64.8535L155.857 56.9717L159.369 57.7176C161.453 60.7094 164.044 63.3474 167.051 65.5008C173.024 69.7784 180.279 71.887 187.615 71.4775C194.95 71.068 201.926 68.1649 207.385 63.2491C212.845 58.3333 216.462 51.6998 217.637 44.4474C218.811 37.195 217.473 29.7591 213.843 23.3713C210.214 16.9836 204.511 12.0273 197.68 9.32358C190.849 6.61988 183.299 6.33097 176.281 8.50471C173.108 9.48766 170.129 10.9475 167.438 12.8152L148.357 8.75533C141.073 7.24283 133.486 8.65973 127.24 12.6993C120.993 16.7389 116.588 23.0762 114.979 30.3392L107.7 63.9581C93.74 65.8793 80.162 70.0056 67.4776 76.192C63.2572 75.0562 58.7329 74.4649 54.3392 74.4416C42.4566 74.5003 30.9623 78.6793 21.8165 86.2657C12.6792 93.8451 6.45134 104.357 4.19255 116.011C2.9654 122.245 2.87458 128.658 3.91765 134.916C5.39435 143.599 9.09085 151.773 14.5925 158.57C16.6355 182.612 30.3602 203.048 49.7648 217.286C70.3849 232.415 98.0037 241.137 127.989 241.137C157.967 241.137 185.561 232.425 206.156 217.321C225.532 203.111 239.237 182.717 241.277 158.735C246.818 151.928 250.56 143.697 252.07 134.984C253.112 128.761 253.037 122.384 251.839 116.181C249.607 104.489 243.383 93.9341 234.23 86.3224C225.071 78.7058 213.472 74.5095 201.56 74.4523Z" fill="white"/>
  <path d="M236.126 119.197C234.592 111.141 230.305 103.868 224 98.6245C217.694 93.3806 209.761 90.4917 201.56 90.4523C196.664 90.4523 191.823 91.562 187.416 93.7163C171.294 84.6459 153.26 79.5056 134.778 78.7127L143.591 38.0103L170.182 43.6571C171.177 47.221 173.359 50.3382 176.367 52.4924C179.375 54.6467 183.029 55.7086 186.723 55.5024C190.417 55.2962 193.93 53.8341 196.68 51.3584C199.429 48.8827 201.251 45.542 201.842 41.8896C202.434 38.2372 201.76 34.4924 199.932 31.2754C198.104 28.0584 195.232 25.5624 191.792 24.2007C188.352 22.8391 184.549 22.6936 181.015 23.7883C177.481 24.8831 174.427 27.1523 172.358 30.2202L145.104 24.4211C141.939 23.7639 138.642 24.3796 135.928 26.1349C133.214 27.8902 131.3 30.6438 130.601 33.7998L120.852 78.8215C102.562 79.6034 84.7092 84.66 68.7256 93.5857C64.232 91.5392 59.3559 90.4676 54.4183 90.4414C46.239 90.4818 38.327 93.3584 32.0315 98.5804C25.7361 103.803 21.447 111.047 19.8959 119.078C19.0363 123.43 18.9711 127.912 19.7 132.286C20.9317 139.528 24.4019 146.202 29.6226 151.37L30.3407 152.142V153.524C31.1676 193.671 74.0024 225.137 127.989 225.137C181.965 225.137 224.713 193.704 225.529 153.687L225.594 152.186L226.073 151.685C231.437 146.478 235.013 139.706 236.289 132.341C237.018 127.988 236.964 123.528 236.126 119.197Z" fill="#0F1A1C"/>
</svg>