<svg xmlns="http://www.w3.org/2000/svg" width="256" height="256" fill="none" viewBox="0 0 256 256">
  <g clip-path="url(#a)">
    <path fill="#fff" d="M160.705.326a29.053 29.053 0 0 0-16.154 8.134l-72.29 72.312-18.537 18.57a39.702 39.702 0 0 0-11.555 27.974 39.638 39.638 0 0 0 5.956 20.898l-30.453 24.374a46.815 46.815 0 0 0-17.56 33.961 46.804 46.804 0 0 0 49.376 49.376 46.791 46.791 0 0 0 33.975-17.579l24.418-30.506a40.102 40.102 0 0 0 20.829 5.834c10.336 0 20.399-4.112 27.863-11.262l18.639-18.65 9.972-10.018 62.286-62.273a29.125 29.125 0 0 0 8.169-16.19c.932-6.175-.211-12.497-3.069-17.93-16.768-31.434-42.605-57.237-74.028-74.026A29.058 29.058 0 0 0 160.705.326Z"/>
    <path fill="#0F1A1C" d="m82.883 91.517 80.32 80.365-18.515 18.527a24.1 24.1 0 0 1-33.34 0l-6.201-6.19-34.893 43.593a30.803 30.803 0 0 1-35.082 9.596 30.802 30.802 0 0 1-17.804-17.803 30.808 30.808 0 0 1 9.596-35.082l43.594-34.893-6.202-6.213a23.638 23.638 0 0 1 0-33.34l18.527-18.56Zm154.878-7.204a163.821 163.821 0 0 0-67.343-67.388 13.056 13.056 0 0 0-15.274 2.308L92.833 81.567l80.32 80.32 62.312-62.3a13.043 13.043 0 0 0 2.307-15.285l-.011.011Z"/>
  </g>
  <defs>
    <clipPath id="a">
      <path fill="#fff" d="M0 0h256v256H0z"/>
    </clipPath>
  </defs>
</svg>