<svg xmlns="http://www.w3.org/2000/svg" width="40" height="40" fill="none" viewBox="0 0 40 40">
  <path fill="#fff" d="M38.694 10.964a7.209 7.209 0 0 0-2.096-5.042l-2.53-2.53a7.207 7.207 0 0 0-10.106-.058L2.649 24.193a4.532 4.532 0 0 0-1.35 3.211v6.768A4.52 4.52 0 0 0 5.817 38.7h6.764a4.536 4.536 0 0 0 3.22-1.352L36.654 16.03a7.209 7.209 0 0 0 2.04-5.066Z"/>
  <path fill="#0F1A1C" d="m34.825 7.684-2.52-2.52a4.707 4.707 0 0 0-6.6-.037l-21.3 20.845a2.033 2.033 0 0 0-.605 1.44v6.763A2.02 2.02 0 0 0 5.818 36.2h6.762a2.036 2.036 0 0 0 1.44-.607l20.84-21.306a4.71 4.71 0 0 0-.035-6.603Zm-22.342 26.26H6.05v-6.433l17.36-16.983 6.056 6.052-16.983 17.365Zm20.77-21.23-2.214 2.262-6.02-6.02L27.28 6.74a2.452 2.452 0 0 1 3.438.018l2.52 2.52a2.455 2.455 0 0 1 .014 3.435Z"/>
</svg>